<svg width="63.9999918847832" height="63.9999918847832"
     version="1.1" xmlns="http://www.w3.org/2000/svg"
     xmlns:xlink="http://www.w3.org/1999/xlink">
 <symbol id="backward" viewbox="0 0 66 66">
  <g>
   <title>Layer 1</title>
   <path d="m32.800003,51.899994c-10.900003,0 -19.900003,-8.899994 -19.900003,-19.899994c0,-11 8.900002,-19.899994 19.900003,-19.899994c8.299995,0 15.399994,5.199982 18.299995,13.299988l-2.699997,1c-2.5,-7 -8.5,-11.399994 -15.599998,-11.399994c-9.400003,0 -17.000002,7.600006 -17.000002,17s7.599998,17 17.000002,17c6.599998,0 12.699997,-3.899994 15.5,-9.899994l2.599998,1.199982c-3.200005,7.100006 -10.300003,11.600006 -18.099998,11.600006" transform="rotate(180 32 32)" id="tail" class="st0"/>
   <path d="m12.0879,25.209206l0,-1.900499l5.701401,0l0,-5.6401l1.900398,0l0,7.5406l-7.601799,0" transform="rotate(80 15.8888 21.4389)" stroke-width="null" stroke-linejoin="null" stroke-linecap="null" stroke="null" id="chevron"/>
   <text xml:space="preserve" y="49.332" x="21.6831" transform="matrix(0.678602 0 0 0.678602 5.96835 5.5891)" text-anchor="start" stroke-width="0" stroke-opacity="null" stroke="null" style="pointer-events: inherit;" font-weight="bold" font-size="30px" font-family="Helvetica,Arial,sans-serif" id="text">30</text>
  </g>
</symbol>
</svg>